<svg xmlns="http://www.w3.org/2000/svg" viewBox="0 0 62 62"><defs><style>.cls-1{fill:#963b3b;}.cls-2{fill:none;stroke:#fff;stroke-miterlimit:10;}.cls-3{fill:#dba2a2;}.cls-4{fill:#fff;}</style></defs><title>Asset 3</title><g id="Layer_2" data-name="Layer 2"><g id="base-red"><circle class="cls-1" cx="31" cy="31" r="31"/></g><g id="circle-outline"><circle class="cls-2" cx="31" cy="31" r="28"/></g><g id="letter-e"><path class="cls-3" d="M20.88,36.11V26.77c0-10.94,3.2-14.34,10.05-14.34,7.74,0,9.6,4.87,9.6,15.3v3.33h-15v6.46c0,7.23,1.54,9.54,5.31,9.54,2.88,0,5.06-1.28,5.06-7.11V37.39h4.54v2c0,6.72-2.43,11.14-9.6,11.14C23.89,50.58,20.88,46.86,20.88,36.11Zm15-7.74V25.3c0-5.83-.51-9.35-5.06-9.35C27,16,25.55,18,25.55,25.87v2.5Z"/></g><g id="stars"><polygon class="cls-4" points="31 4.6 31.5 5.5 32.4 6 31.5 6.5 31 7.4 30.5 6.5 29.6 6 30.5 5.5 31 4.6"/><polygon class="cls-4" points="31 54.6 31.5 55.51 32.4 56 31.5 56.49 31 57.4 30.5 56.49 29.6 56 30.5 55.51 31 54.6"/><polygon class="cls-4" points="4.6 31 5.5 30.5 6 29.6 6.5 30.5 7.4 31 6.5 31.5 6 32.4 5.5 31.5 4.6 31"/><polygon class="cls-4" points="54.6 31 55.51 30.5 56 29.6 56.49 30.5 57.4 31 56.49 31.5 56 32.4 55.51 31.5 54.6 31"/></g></g></svg>