<svg xmlns="http://www.w3.org/2000/svg" viewBox="0 0 62 74.43"><defs><style>.cls-1{fill:#963b3b;}.cls-2{fill:none;stroke:#fff;stroke-miterlimit:10;}.cls-3{font-size:64px;fill:#dba2a2;font-family:Oswald-Light, Oswald;font-weight:300;}.cls-4{fill:#fff;}</style></defs><title>Asset 2</title><g id="Layer_2" data-name="Layer 2"><g id="base-red"><circle class="cls-1" cx="31" cy="38.92" r="31"/></g><g id="circle-outline"><circle class="cls-2" cx="31" cy="38.92" r="28"/></g><g id="letter-e"><text class="cls-3" transform="translate(18 57.92)">e</text></g><g id="stars"><polygon class="cls-4" points="31 12.52 31.5 13.43 32.4 13.92 31.5 14.41 31 15.32 30.5 14.41 29.6 13.92 30.5 13.43 31 12.52"/><polygon class="cls-4" points="31 62.52 31.5 63.42 32.4 63.92 31.5 64.42 31 65.32 30.5 64.42 29.6 63.92 30.5 63.42 31 62.52"/><polygon class="cls-4" points="4.6 38.92 5.5 38.42 6 37.52 6.5 38.42 7.4 38.92 6.5 39.41 6 40.32 5.5 39.41 4.6 38.92"/><polygon class="cls-4" points="54.6 38.92 55.51 38.42 56 37.52 56.49 38.42 57.4 38.92 56.49 39.41 56 40.32 55.51 39.41 54.6 38.92"/></g></g></svg>